# xmcd
#
# Track frame offsets: 
#        150
#        16512
#        33685
#        42852
#        57635
#        72035
#        92287
#        112695
#        132552
#        150070
#        167455
#        183757
#
# Disc length: 2736 seconds
#
# Revision: 1
# Processed by: cddbd v1.5.2PL0 Copyright (c) Steve Scherf et al.
# Submitted via: ExactAudioCopyFreeDBPlugin 1.0
#
DISCID=810aae0c
DTITLE=Broadcast - The Noise Made By People
DYEAR=2000
DGENRE=Indie
TTITLE0=Long Was The Year
TTITLE1=Unchanging Window
TTITLE2=Minus One
TTITLE3=Come On Let's Go
TTITLE4=Echo's Answer
TTITLE5=Tower Of Our Tuning
TTITLE6=Papercuts
TTITLE7=You Can Fall
TTITLE8=Look Outside
TTITLE9=Until Then
TTITLE10=City In Progress
TTITLE11=Dead The Long Year
EXTD=
EXTT0=
EXTT1=
EXTT2=
EXTT3=
EXTT4=
EXTT5=
EXTT6=
EXTT7=
EXTT8=
EXTT9=
EXTT10=
EXTT11=
PLAYORDER=
